<svg width="30" height="30" viewBox="0 0 30 30" fill="none" xmlns="http://www.w3.org/2000/svg">
<rect width="30" height="30" rx="15" fill="#AD343E"/>
<rect width="15.07" height="15.07" transform="translate(7.00012 7.00015)" fill="#AD343E"/>
<path d="M8.88388 8.88391H10.1397L10.3909 10.1397M11.3955 15.1631H17.6747L20.1864 10.1397H10.3909M11.3955 15.1631L10.3909 10.1397M11.3955 15.1631L9.9558 16.6028C9.56024 16.9984 9.84039 17.6747 10.3998 17.6747H17.6747M17.6747 17.6747C16.9811 17.6747 16.4189 18.237 16.4189 18.9306C16.4189 19.6242 16.9811 20.1864 17.6747 20.1864C18.3683 20.1864 18.9305 19.6242 18.9305 18.9306C18.9305 18.237 18.3683 17.6747 17.6747 17.6747ZM12.6514 18.9306C12.6514 19.6242 12.0891 20.1864 11.3955 20.1864C10.702 20.1864 10.1397 19.6242 10.1397 18.9306C10.1397 18.237 10.702 17.6747 11.3955 17.6747C12.0891 17.6747 12.6514 18.237 12.6514 18.9306Z" stroke="white" stroke-width="1.5" stroke-linecap="round" stroke-linejoin="round"/>
</svg>
