<svg width="55" height="55" viewBox="0 0 55 55" fill="none" xmlns="http://www.w3.org/2000/svg">
<path d="M29.4562 4.29677C29.2195 4.02603 28.9296 3.80953 28.6054 3.66146C28.2813 3.51339 27.9302 3.43709 27.5752 3.43757H26.3156C25.9577 3.43492 25.6034 3.51032 25.2762 3.65875C24.9491 3.80718 24.6566 4.02523 24.4182 4.29838C24.1799 4.57153 24.0011 4.89351 23.8939 5.24287C23.7867 5.59223 23.7535 5.96096 23.7964 6.3245L24.1911 9.6668C24.2158 9.87637 24.3151 10.0693 24.47 10.2087C24.6249 10.3482 24.8245 10.4244 25.0308 10.4229H28.8432C29.0495 10.4244 29.2491 10.3482 29.404 10.2087C29.5589 10.0693 29.6581 9.87637 29.6829 9.6668L30.0776 6.3245C30.1208 5.96073 30.0878 5.59172 29.9806 5.24206C29.8734 4.89241 29.6947 4.57014 29.4562 4.29677Z" fill="url(#paint0_linear_2_121)"/>
<path d="M26.937 8.59277C22.2601 8.59277 17.7748 10.4938 14.4677 13.8775C11.1606 17.2613 9.30273 21.8507 9.30273 26.6361V29.2137C9.30273 29.4416 9.39121 29.6601 9.54868 29.8212C9.70616 29.9824 9.91975 30.0729 10.1425 30.0729H43.7316C43.9543 30.0729 44.1679 29.9824 44.3253 29.8212C44.4828 29.6601 44.5713 29.4416 44.5713 29.2137V26.6361C44.5713 21.8507 42.7134 17.2613 39.4063 13.8775C36.0993 10.4938 31.6139 8.59277 26.937 8.59277Z" fill="url(#paint1_linear_2_121)"/>
<path d="M50.273 40.7442L45.982 40.1084L44.059 36.1302C43.9894 35.9873 43.8822 35.867 43.7494 35.7829C43.6167 35.6988 43.4636 35.6543 43.3075 35.6543C43.1514 35.6543 42.9983 35.6988 42.8656 35.7829C42.7328 35.867 42.6256 35.9873 42.5559 36.1302L40.633 40.1084L36.342 40.7442C36.1857 40.7659 36.0387 40.8322 35.9176 40.9355C35.7965 41.0388 35.7062 41.1748 35.6572 41.3281C35.6081 41.4814 35.6022 41.6457 35.6402 41.8023C35.6781 41.9589 35.7583 42.1013 35.8717 42.2134L38.9787 45.3151L38.2481 49.6885C38.2207 49.8468 38.2371 50.0098 38.2957 50.159C38.3542 50.3081 38.4525 50.4375 38.5793 50.5324C38.7062 50.6273 38.8565 50.6838 39.0132 50.6957C39.1699 50.7075 39.3267 50.6741 39.4657 50.5992L43.3117 48.5286L47.1492 50.5992C47.2883 50.6741 47.4451 50.7075 47.6018 50.6957C47.7585 50.6838 47.9088 50.6273 48.0356 50.5324C48.1625 50.4375 48.2608 50.3081 48.3193 50.159C48.3779 50.0098 48.3943 49.8468 48.3668 49.6885L47.6363 45.3151L50.7433 42.2134C50.8566 42.1013 50.9369 41.9589 50.9748 41.8023C51.0128 41.6457 51.0069 41.4814 50.9578 41.3281C50.9087 41.1748 50.8185 41.0388 50.6974 40.9355C50.5763 40.8322 50.4292 40.7659 50.273 40.7442Z" fill="url(#paint2_linear_2_121)"/>
<path d="M17.5321 40.7442L13.2411 40.1084L11.3181 36.1302C11.2484 35.9873 11.1412 35.867 11.0085 35.7829C10.8757 35.6988 10.7227 35.6543 10.5665 35.6543C10.4104 35.6543 10.2574 35.6988 10.1246 35.7829C9.99184 35.867 9.88461 35.9873 9.81497 36.1302L7.89199 40.1084L3.60099 40.7442C3.44478 40.7659 3.29772 40.8322 3.17662 40.9355C3.05552 41.0388 2.96528 41.1748 2.91621 41.3281C2.86715 41.4814 2.86125 41.6457 2.89919 41.8023C2.93713 41.9589 3.01737 42.1013 3.13074 42.2134L6.23773 45.3151L5.50717 49.6885C5.47969 49.8468 5.49616 50.0098 5.55471 50.159C5.61326 50.3081 5.71154 50.4375 5.83838 50.5324C5.96522 50.6273 6.11553 50.6838 6.27222 50.6957C6.42892 50.7075 6.58571 50.6741 6.72477 50.5992L10.5623 48.5286L14.4083 50.5992C14.5473 50.6741 14.7041 50.7075 14.8608 50.6957C15.0175 50.6838 15.1678 50.6273 15.2947 50.5324C15.4215 50.4375 15.5198 50.3081 15.5783 50.159C15.6369 50.0098 15.6534 49.8468 15.6259 49.6885L14.8953 45.3151L18.0023 42.2134C18.1157 42.1013 18.1959 41.9589 18.2339 41.8023C18.2718 41.6457 18.2659 41.4814 18.2168 41.3281C18.1678 41.1748 18.0775 41.0388 17.9564 40.9355C17.8353 40.8322 17.6883 40.7659 17.5321 40.7442Z" fill="url(#paint3_linear_2_121)"/>
<path d="M33.9067 40.7441L29.6073 40.1083L27.6927 36.1302C27.624 35.9849 27.5166 35.8624 27.383 35.7767C27.2493 35.691 27.0947 35.6455 26.937 35.6455C26.7792 35.6455 26.6247 35.691 26.491 35.7767C26.3574 35.8624 26.25 35.9849 26.1812 36.1302L24.2667 40.1083L19.9673 40.7441C19.8117 40.7672 19.6657 40.8345 19.5457 40.9383C19.4257 41.0421 19.3366 41.1783 19.2884 41.3313C19.2403 41.4844 19.2351 41.6482 19.2735 41.8041C19.3119 41.9601 19.3922 42.1018 19.5054 42.2134L22.6124 45.3151L21.8986 49.6884C21.87 49.8479 21.886 50.0124 21.9448 50.1629C22.0037 50.3134 22.1029 50.4438 22.2312 50.5391C22.3594 50.6343 22.5113 50.6905 22.6694 50.7012C22.8275 50.7118 22.9853 50.6764 23.1246 50.5992L26.937 48.5285L30.7745 50.5992C30.9131 50.6693 31.0678 50.699 31.2218 50.6849C31.3757 50.6708 31.5229 50.6135 31.647 50.5194C31.7712 50.4252 31.8675 50.2978 31.9255 50.1512C31.9834 50.0046 32.0007 49.8445 31.9754 49.6884L31.2364 45.3151L34.3434 42.2134C34.4562 42.1035 34.5369 41.9638 34.5766 41.8097C34.6162 41.6557 34.6132 41.4934 34.5679 41.3409C34.5226 41.1885 34.4368 41.052 34.32 40.9466C34.2033 40.8412 34.0602 40.7711 33.9067 40.7441Z" fill="url(#paint4_linear_2_121)"/>
<path d="M47.5104 28.3545H6.36372C6.19692 28.3535 6.03362 28.4034 5.89463 28.4977C5.75564 28.5921 5.64726 28.7266 5.5833 28.8842C5.51934 29.0418 5.5027 29.2154 5.53551 29.3827C5.56832 29.55 5.64908 29.7036 5.76751 29.8237L9.12642 33.2606C9.20488 33.3402 9.29794 33.4032 9.40025 33.446C9.50256 33.4887 9.61211 33.5104 9.72262 33.5097H44.1515C44.262 33.5104 44.3715 33.4887 44.4738 33.446C44.5761 33.4032 44.6692 33.3402 44.7477 33.2606L48.1066 29.8237C48.225 29.7036 48.3058 29.55 48.3386 29.3827C48.3714 29.2154 48.3547 29.0418 48.2908 28.8842C48.2268 28.7266 48.1184 28.5921 47.9794 28.4977C47.8405 28.4034 47.6772 28.3535 47.5104 28.3545Z" fill="url(#paint5_linear_2_121)"/>
<path d="M9.12642 33.2606C9.20488 33.3402 9.29794 33.4032 9.40025 33.446C9.50256 33.4887 9.61211 33.5104 9.72262 33.5097H44.1515C44.262 33.5104 44.3715 33.4887 44.4738 33.446C44.5761 33.4032 44.6692 33.3402 44.7477 33.2606L48.1066 29.8237C48.225 29.7036 48.3058 29.55 48.3386 29.3827C48.3714 29.2154 48.3547 29.0418 48.2908 28.8842C48.2268 28.7266 48.1184 28.5921 47.9794 28.4977C47.8405 28.4034 47.6772 28.3535 47.5104 28.3545H44.5713V26.6361C44.5658 22.3567 43.0739 18.2187 40.3621 14.9608C37.6503 11.7029 33.8951 9.53729 29.7669 8.85056L30.0692 6.3245C30.1122 5.96096 30.0789 5.59223 29.9717 5.24287C29.8645 4.89351 29.6858 4.57153 29.4474 4.29838C29.209 4.02523 28.9165 3.80718 28.5894 3.65875C28.2622 3.51032 27.9079 3.43492 27.55 3.43757H26.2904C25.9326 3.43492 25.5783 3.51032 25.2511 3.65875C24.9239 3.80718 24.6314 4.02523 24.3931 4.29838C24.1547 4.57153 23.976 4.89351 23.8688 5.24287C23.7615 5.59223 23.7283 5.96096 23.7713 6.3245L24.0736 8.85056C19.9516 9.54463 16.2042 11.7134 13.4992 14.9706C10.7941 18.2278 9.307 22.3618 9.30276 26.6361V28.3545H6.36372C6.19692 28.3535 6.03362 28.4034 5.89463 28.4977C5.75564 28.5921 5.64726 28.7266 5.5833 28.8842C5.51934 29.0418 5.5027 29.2154 5.53551 29.3827C5.56832 29.55 5.64908 29.7036 5.76751 29.8237L9.12642 33.2606ZM25.4759 6.11829C25.4616 5.99711 25.4727 5.8742 25.5084 5.75775C25.5442 5.64129 25.6037 5.53397 25.6832 5.44292C25.7626 5.35187 25.8601 5.27918 25.9692 5.22971C26.0782 5.18023 26.1963 5.15509 26.3156 5.15598H27.5752C27.6945 5.15509 27.8126 5.18023 27.9217 5.22971C28.0307 5.27918 28.1282 5.35187 28.2077 5.44292C28.2871 5.53397 28.3467 5.64129 28.3825 5.75775C28.4182 5.8742 28.4293 5.99711 28.415 6.11829L28.1211 8.6959C27.3447 8.6186 26.5629 8.6186 25.7866 8.6959L25.4759 6.11829ZM10.9822 26.6361C10.9822 22.3065 12.6632 18.1542 15.6553 15.0927C18.6474 12.0311 22.7056 10.3112 26.937 10.3112C31.1685 10.3112 35.2267 12.0311 38.2188 15.0927C41.2109 18.1542 42.8919 22.3065 42.8919 26.6361V28.3545H10.9822V26.6361ZM45.4866 30.0729L43.8072 31.7913H10.0669L8.38746 30.0729H45.4866Z" fill="url(#paint6_linear_2_121)"/>
<path d="M18.5397 14.8132C15.7771 16.8693 13.8234 19.8677 13.0311 23.2678C12.9956 23.3806 12.9833 23.4998 12.9949 23.6177C13.0066 23.7356 13.042 23.8498 13.0988 23.9531C13.1557 24.0564 13.2328 24.1465 13.3254 24.2177C13.418 24.289 13.5239 24.3399 13.6367 24.3673C13.7494 24.3946 13.8664 24.3978 13.9804 24.3767C14.0944 24.3555 14.2028 24.3104 14.299 24.2443C14.3951 24.1781 14.4768 24.0923 14.539 23.9923C14.6011 23.8923 14.6424 23.7802 14.6602 23.6631C15.3585 20.6606 17.0868 18.0142 19.5306 16.2052C19.6199 16.1386 19.6956 16.0547 19.7532 15.9582C19.8108 15.8617 19.8493 15.7546 19.8664 15.6429C19.8836 15.5312 19.8791 15.4171 19.8532 15.3072C19.8272 15.1973 19.7804 15.0937 19.7153 15.0023C19.6503 14.9109 19.5683 14.8335 19.474 14.7745C19.3797 14.7156 19.275 14.6762 19.1658 14.6586C19.0566 14.6411 18.9451 14.6457 18.8377 14.6722C18.7303 14.6988 18.629 14.7467 18.5397 14.8132Z" fill="url(#paint7_linear_2_121)"/>
<path d="M44.059 36.1302C43.9894 35.9873 43.8822 35.867 43.7494 35.7829C43.6167 35.6988 43.4636 35.6543 43.3075 35.6543C43.1514 35.6543 42.9983 35.6988 42.8656 35.7829C42.7328 35.867 42.6256 35.9873 42.5559 36.1302L40.633 40.1084L36.342 40.7442C36.1857 40.7659 36.0387 40.8322 35.9176 40.9355C35.7965 41.0388 35.7062 41.1748 35.6572 41.3281C35.6081 41.4814 35.6022 41.6457 35.6402 41.8023C35.6781 41.9589 35.7583 42.1013 35.8717 42.2134L38.9787 45.3151L38.2481 49.6885C38.2207 49.8468 38.2371 50.0098 38.2957 50.159C38.3542 50.3081 38.4525 50.4375 38.5793 50.5324C38.7062 50.6273 38.8565 50.6838 39.0132 50.6957C39.1699 50.7075 39.3267 50.6741 39.4657 50.5992L43.3117 48.5286L47.1492 50.5992C47.2883 50.6741 47.4451 50.7075 47.6018 50.6957C47.7585 50.6838 47.9088 50.6273 48.0356 50.5324C48.1625 50.4375 48.2608 50.3081 48.3193 50.159C48.3779 50.0098 48.3943 49.8468 48.3668 49.6885L47.6363 45.3151L50.7433 42.2134C50.8566 42.1013 50.9369 41.9589 50.9748 41.8023C51.0128 41.6457 51.0069 41.4814 50.9578 41.3281C50.9087 41.1748 50.8185 41.0388 50.6974 40.9355C50.5763 40.8322 50.4292 40.7659 50.273 40.7442L45.982 40.1084L44.059 36.1302ZM46.1416 44.3958C46.0446 44.4941 45.9725 44.6151 45.9315 44.7484C45.8905 44.8816 45.8819 45.0231 45.9064 45.1605L46.4271 48.2622L43.7316 46.793C43.6111 46.7282 43.4771 46.6944 43.3411 46.6944C43.205 46.6944 43.071 46.7282 42.9506 46.793L40.2215 48.2622L40.7421 45.1605C40.7666 45.0231 40.758 44.8816 40.7171 44.7484C40.6761 44.6151 40.604 44.4941 40.507 44.3958L38.2985 42.1962L41.3467 41.7408C41.4804 41.7211 41.6075 41.6685 41.7172 41.5878C41.8268 41.507 41.9158 41.4003 41.9765 41.2769L43.3453 38.4501L44.672 41.2425C44.7328 41.366 44.8218 41.4726 44.9314 41.5534C45.0411 41.6342 45.1681 41.6867 45.3018 41.7065L48.3501 42.1619L46.1416 44.3958Z" fill="url(#paint8_linear_2_121)"/>
<path d="M6.23773 45.3151L5.50717 49.6885C5.47969 49.8468 5.49616 50.0098 5.55471 50.159C5.61326 50.3081 5.71154 50.4375 5.83838 50.5324C5.96522 50.6273 6.11553 50.6838 6.27222 50.6957C6.42892 50.7075 6.58571 50.6741 6.72477 50.5992L10.5623 48.5286L14.4083 50.5992C14.5473 50.6741 14.7041 50.7075 14.8608 50.6957C15.0175 50.6838 15.1678 50.6273 15.2947 50.5324C15.4215 50.4375 15.5198 50.3081 15.5783 50.159C15.6369 50.0098 15.6534 49.8468 15.6259 49.6885L14.8953 45.3151L18.0023 42.2134C18.1157 42.1013 18.1959 41.9589 18.2339 41.8023C18.2718 41.6457 18.2659 41.4814 18.2168 41.3281C18.1678 41.1748 18.0775 41.0388 17.9564 40.9355C17.8353 40.8322 17.6883 40.7659 17.5321 40.7442L13.2411 40.1084L11.3181 36.1302C11.2484 35.9873 11.1412 35.867 11.0085 35.7829C10.8757 35.6988 10.7227 35.6543 10.5665 35.6543C10.4104 35.6543 10.2574 35.6988 10.1246 35.7829C9.99184 35.867 9.88461 35.9873 9.81497 36.1302L7.89199 40.1084L3.60099 40.7442C3.44478 40.7659 3.29772 40.8322 3.17662 40.9355C3.05552 41.0388 2.96528 41.1748 2.91621 41.3281C2.86715 41.4814 2.86125 41.6457 2.89919 41.8023C2.93713 41.9589 3.01737 42.1013 3.13074 42.2134L6.23773 45.3151ZM8.57217 41.7408C8.70588 41.7211 8.83295 41.6685 8.9426 41.5878C9.05224 41.507 9.14121 41.4003 9.20197 41.2769L10.5623 38.4501L11.9311 41.2425C11.9918 41.366 12.0808 41.4726 12.1905 41.5534C12.3001 41.6342 12.4272 41.6867 12.5609 41.7065L15.6091 42.1619L13.4006 44.3614C13.3036 44.4597 13.2315 44.5807 13.1905 44.714C13.1496 44.8472 13.141 44.9887 13.1655 45.1261L13.6861 48.2278L10.9822 46.793C10.8618 46.7282 10.7278 46.6944 10.5917 46.6944C10.4557 46.6944 10.3217 46.7282 10.2012 46.793L7.44694 48.2622L7.96757 45.1605C7.99208 45.0231 7.98348 44.8816 7.94251 44.7484C7.90154 44.6151 7.82944 44.4941 7.73245 44.3958L5.52396 42.1962L8.57217 41.7408Z" fill="url(#paint9_linear_2_121)"/>
<path d="M33.9067 40.7441L29.6073 40.1083L27.6927 36.1302C27.624 35.9849 27.5166 35.8624 27.383 35.7767C27.2493 35.691 27.0947 35.6455 26.937 35.6455C26.7792 35.6455 26.6247 35.691 26.491 35.7767C26.3574 35.8624 26.25 35.9849 26.1812 36.1302L24.2667 40.1083L19.9673 40.7441C19.8117 40.7672 19.6657 40.8345 19.5457 40.9383C19.4257 41.0421 19.3366 41.1783 19.2884 41.3313C19.2403 41.4844 19.2351 41.6482 19.2735 41.8041C19.3119 41.9601 19.3922 42.1018 19.5054 42.2134L22.6124 45.3151L21.8986 49.6884C21.87 49.8479 21.886 50.0124 21.9448 50.1629C22.0037 50.3134 22.1029 50.4438 22.2312 50.5391C22.3594 50.6343 22.5113 50.6905 22.6694 50.7012C22.8275 50.7118 22.9853 50.6764 23.1246 50.5992L26.937 48.5285L30.7745 50.5992C30.9131 50.6693 31.0678 50.699 31.2218 50.6849C31.3757 50.6708 31.5229 50.6135 31.647 50.5194C31.7712 50.4252 31.8675 50.2978 31.9255 50.1512C31.9834 50.0046 32.0007 49.8445 31.9754 49.6884L31.2364 45.3151L34.3434 42.2134C34.4562 42.1035 34.5369 41.9638 34.5766 41.8097C34.6162 41.6557 34.6132 41.4934 34.5679 41.3409C34.5226 41.1885 34.4368 41.052 34.32 40.9466C34.2033 40.8412 34.0602 40.7711 33.9067 40.7441ZM29.7753 44.3957C29.6768 44.4932 29.6031 44.6138 29.5607 44.7471C29.5182 44.8804 29.5083 45.0223 29.5317 45.1604L30.0524 48.2622L27.3317 46.7929C27.2102 46.7267 27.0746 46.6921 26.937 46.6921C26.7993 46.6921 26.6638 46.7267 26.5423 46.7929L23.8216 48.2622L24.3422 45.1604C24.3657 45.0223 24.3558 44.8804 24.3133 44.7471C24.2709 44.6138 24.1972 44.4932 24.0987 44.3957L21.8986 42.1962L24.9468 41.7408C25.082 41.7223 25.2108 41.6704 25.322 41.5896C25.4332 41.5087 25.5235 41.4014 25.585 41.2768L26.937 38.45L28.2973 41.2425C28.3589 41.367 28.4492 41.4744 28.5604 41.5552C28.6716 41.636 28.8003 41.688 28.9355 41.7064L31.9838 42.1618L29.7753 44.3957Z" fill="url(#paint10_linear_2_121)"/>
<defs>
<linearGradient id="paint0_linear_2_121" x1="26.937" y1="10.4229" x2="26.937" y2="3.43757" gradientUnits="userSpaceOnUse">
<stop stop-color="#838383"/>
<stop offset="1" stop-color="#A1A1A1"/>
</linearGradient>
<linearGradient id="paint1_linear_2_121" x1="26.937" y1="8.59277" x2="26.937" y2="30.0729" gradientUnits="userSpaceOnUse">
<stop stop-color="#D6D6D6"/>
<stop offset="1" stop-color="#A1A1A1"/>
</linearGradient>
<linearGradient id="paint2_linear_2_121" x1="43.3117" y1="35.6491" x2="43.3117" y2="50.6938" gradientUnits="userSpaceOnUse">
<stop stop-color="#FFC033"/>
<stop offset="1" stop-color="#EF8E2E"/>
</linearGradient>
<linearGradient id="paint3_linear_2_121" x1="10.5623" y1="35.6835" x2="10.5623" y2="50.6938" gradientUnits="userSpaceOnUse">
<stop stop-color="#FFC033"/>
<stop offset="1" stop-color="#EF8E2E"/>
</linearGradient>
<linearGradient id="paint4_linear_2_121" x1="26.937" y1="35.6834" x2="26.937" y2="50.6937" gradientUnits="userSpaceOnUse">
<stop stop-color="#FFC033"/>
<stop offset="1" stop-color="#EF8E2E"/>
</linearGradient>
<linearGradient id="paint5_linear_2_121" x1="26.937" y1="33.5097" x2="26.937" y2="28.3545" gradientUnits="userSpaceOnUse">
<stop stop-color="#6E6E6E"/>
<stop offset="1" stop-color="#8C8C8C"/>
</linearGradient>
<linearGradient id="paint6_linear_2_121" x1="26.937" y1="33.5097" x2="26.937" y2="3.43757" gradientUnits="userSpaceOnUse">
<stop stop-color="#000406"/>
<stop offset="1" stop-color="#001521"/>
</linearGradient>
<linearGradient id="paint7_linear_2_121" x1="16.4572" y1="24.3246" x2="16.4572" y2="14.65" gradientUnits="userSpaceOnUse">
<stop stop-color="#000406"/>
<stop offset="1" stop-color="#001521"/>
</linearGradient>
<linearGradient id="paint8_linear_2_121" x1="43.3117" y1="50.6938" x2="43.3117" y2="35.6491" gradientUnits="userSpaceOnUse">
<stop stop-color="#000406"/>
<stop offset="1" stop-color="#001521"/>
</linearGradient>
<linearGradient id="paint9_linear_2_121" x1="10.5623" y1="50.6938" x2="10.5623" y2="35.6835" gradientUnits="userSpaceOnUse">
<stop stop-color="#000406"/>
<stop offset="1" stop-color="#001521"/>
</linearGradient>
<linearGradient id="paint10_linear_2_121" x1="26.937" y1="50.6937" x2="26.937" y2="35.6834" gradientUnits="userSpaceOnUse">
<stop stop-color="#000406"/>
<stop offset="1" stop-color="#001521"/>
</linearGradient>
</defs>
</svg>
